<?xml version="1.0" encoding="UTF-8"?>
<svg xmlns="http://www.w3.org/2000/svg" xmlns:xlink="http://www.w3.org/1999/xlink" viewBox="0 0 64 64" width="50px" height="50px">
<g id="surface4680456">
<path style=" stroke:none;fill-rule:nonzero;fill:rgb(90.588236%,29.803923%,23.529412%);fill-opacity:1;" d="M 50.859375 5.859375 L 57.667969 12.667969 C 59.230469 14.230469 59.230469 16.761719 57.667969 18.324219 L 54.003906 21.988281 L 41.539062 9.523438 L 45.199219 5.859375 C 46.761719 4.296875 49.296875 4.296875 50.859375 5.859375 Z M 50.859375 5.859375 "/>
<path style=" stroke:none;fill-rule:nonzero;fill:rgb(76.078433%,80.392158%,90.588236%);fill-opacity:1;" d="M 39.125 8.878906 L 55.125 24.878906 L 48.507812 31.5 L 32.503906 15.496094 Z M 39.125 8.878906 "/>
<path style=" stroke:none;fill-rule:nonzero;fill:rgb(100%,79.215688%,42.745098%);fill-opacity:1;" d="M 34.125 16.875 L 47.125 29.871094 L 18.5 58.496094 L 5.503906 45.5 Z M 34.125 16.875 "/>
<path style=" stroke:none;fill-rule:nonzero;fill:rgb(100%,79.215688%,42.745098%);fill-opacity:1;" d="M 42.625 25.375 L 47.125 29.871094 L 18.5 58.496094 L 14.003906 54 Z M 42.625 25.375 "/>
<path style=" stroke:none;fill-rule:nonzero;fill:rgb(90.980393%,84.705883%,75.686276%);fill-opacity:1;" d="M 5 57 L 6 46 L 13 47 L 14 50 L 16.921875 51.5 L 19 59 L 7 59 Z M 5 57 "/>
<path style=" stroke:none;fill-rule:nonzero;fill:rgb(90.980393%,84.705883%,75.686276%);fill-opacity:1;" d="M 34.125 16.875 L 38.625 21.371094 L 10 49.996094 L 5.503906 45.496094 Z M 34.125 16.875 "/>
<path style=" stroke:none;fill-rule:nonzero;fill:rgb(55.29412%,42.352942%,62.352943%);fill-opacity:1;" d="M 60.589844 15.898438 C 60.589844 14.839844 60.171875 13.820312 59.421875 13.070312 L 50.929688 4.589844 C 49.347656 3.074219 46.851562 3.074219 45.269531 4.589844 L 41 8.828125 C 40.625 8.453125 40.117188 8.242188 39.585938 8.242188 C 39.054688 8.242188 38.546875 8.453125 38.171875 8.828125 L 32.511719 14.488281 C 32.132812 14.863281 31.921875 15.375 31.921875 15.90625 C 31.921875 16.4375 32.132812 16.945312 32.511719 17.320312 L 32.558594 17.371094 L 5.519531 44.398438 C 5.015625 44.902344 4.707031 45.570312 4.648438 46.28125 L 4 54.679688 L 3.300781 59.601562 C 3.257812 59.886719 3.347656 60.179688 3.539062 60.398438 C 3.730469 60.617188 4.007812 60.742188 4.300781 60.738281 L 4.398438 60.738281 L 9.320312 60 L 17.769531 59.378906 C 18.488281 59.328125 19.160156 59.019531 19.671875 58.511719 L 46.75 31.511719 C 47.523438 32.253906 48.746094 32.253906 49.519531 31.511719 L 55.179688 25.851562 C 55.554688 25.476562 55.765625 24.964844 55.765625 24.433594 C 55.765625 23.902344 55.554688 23.394531 55.179688 23.019531 L 59.421875 18.78125 C 60.183594 18.015625 60.605469 16.976562 60.589844 15.898438 Z M 11.898438 47.898438 L 12.480469 50.78125 C 12.558594 51.171875 12.867188 51.480469 13.261719 51.558594 L 16.140625 52.140625 L 17.210938 57.480469 L 9.589844 58 L 6 54.410156 L 6.609375 46.808594 Z M 19 56.351562 L 18 51.578125 L 34.671875 35 C 35.011719 34.601562 34.988281 34.011719 34.617188 33.640625 C 34.25 33.273438 33.65625 33.25 33.261719 33.589844 L 16.660156 50.171875 L 14.300781 49.699219 L 13.828125 47.339844 L 27.589844 33.578125 C 27.929688 33.183594 27.90625 32.59375 27.539062 32.222656 C 27.167969 31.851562 26.578125 31.832031 26.179688 32.171875 L 12.421875 45.929688 L 7.75 45 L 34 18.78125 L 45.320312 30.089844 Z M 52.339844 25.800781 C 51.949219 25.414062 51.320312 25.414062 50.929688 25.800781 L 49.519531 27.210938 C 49.132812 27.601562 49.132812 28.230469 49.519531 28.621094 L 48.101562 30 L 34 15.898438 L 35.410156 14.488281 C 35.800781 14.878906 36.429688 14.878906 36.820312 14.488281 L 38.230469 13.078125 C 38.617188 12.691406 38.617188 12.058594 38.230469 11.671875 L 39.640625 10.261719 L 40.351562 10.96875 L 53.050781 23.679688 L 53.761719 24.390625 Z M 58 17.308594 L 53.761719 21.550781 L 42.441406 10.238281 L 46.691406 6 C 47.066406 5.625 47.574219 5.414062 48.105469 5.414062 C 48.636719 5.414062 49.144531 5.625 49.519531 6 L 58 14.488281 C 58.375 14.863281 58.585938 15.375 58.585938 15.90625 C 58.585938 16.4375 58.375 16.945312 58 17.320312 Z M 58 17.308594 "/>
<path style=" stroke:none;fill-rule:nonzero;fill:rgb(55.29412%,42.352942%,62.352943%);fill-opacity:1;" d="M 40.320312 15.191406 L 38.910156 16.601562 C 38.609375 16.839844 38.472656 17.230469 38.558594 17.605469 C 38.648438 17.980469 38.941406 18.273438 39.316406 18.355469 C 39.691406 18.441406 40.082031 18.300781 40.320312 18 L 41.730469 16.589844 C 42.070312 16.191406 42.046875 15.601562 41.675781 15.234375 C 41.308594 14.863281 40.714844 14.839844 40.320312 15.179688 Z M 43.859375 18.730469 L 42.449219 20.140625 C 42.164062 20.382812 42.039062 20.769531 42.128906 21.132812 C 42.214844 21.5 42.5 21.785156 42.867188 21.871094 C 43.230469 21.960938 43.617188 21.835938 43.859375 21.550781 L 45.269531 20.140625 C 45.609375 19.742188 45.585938 19.152344 45.21875 18.78125 C 44.847656 18.414062 44.257812 18.390625 43.859375 18.730469 Z M 47.390625 22.261719 L 46 23.679688 C 45.714844 23.925781 45.589844 24.308594 45.679688 24.671875 C 45.765625 25.039062 46.050781 25.324219 46.417969 25.410156 C 46.78125 25.5 47.164062 25.375 47.410156 25.089844 L 48.820312 23.679688 C 49.160156 23.285156 49.136719 22.691406 48.765625 22.324219 C 48.398438 21.953125 47.808594 21.929688 47.410156 22.269531 Z M 31.839844 26.511719 L 29 29.328125 C 28.714844 29.574219 28.589844 29.957031 28.679688 30.324219 C 28.765625 30.6875 29.050781 30.972656 29.417969 31.0625 C 29.78125 31.148438 30.164062 31.023438 30.410156 30.738281 L 33.238281 27.910156 C 33.578125 27.511719 33.558594 26.921875 33.1875 26.550781 C 32.816406 26.183594 32.226562 26.160156 31.828125 26.5 Z M 31.839844 26.511719 "/>
</g>
</svg>
